<?xml version="1.0" standalone="no"?>
<!DOCTYPE svg PUBLIC "-//W3C//DTD SVG 20010904//EN"
 "http://www.w3.org/TR/2001/REC-SVG-20010904/DTD/svg10.dtd">
<svg version="1.0" xmlns="http://www.w3.org/2000/svg"
 width="500.000000pt" height="500.000000pt" viewBox="0 0 500.000000 500.000000"
 preserveAspectRatio="xMidYMid meet">

<g transform="translate(0.000000,500.000000) scale(0.100000,-0.100000)"
fill="#ea580c" stroke="none">
<path d="M2894 4770 c-174 -18 -265 -94 -294 -248 -12 -64 3 -133 46 -218 34
-66 36 -74 25 -107 -7 -19 -34 -55 -60 -80 -53 -49 -58 -51 -225 -62 -49 -4
-110 -13 -135 -22 -104 -35 -237 -149 -365 -312 -114 -146 -144 -171 -258
-214 -132 -52 -195 -93 -370 -243 -84 -72 -166 -139 -181 -149 -18 -11 -69
-23 -135 -32 -117 -15 -201 -48 -228 -88 -28 -43 7 -62 42 -24 31 36 96 58
208 73 125 16 118 12 331 192 180 152 221 180 345 228 94 37 154 75 198 128
13 16 28 28 32 28 13 0 87 -116 101 -157 12 -37 12 -37 -32 -77 -110 -98 -250
-202 -314 -233 -38 -18 -133 -49 -210 -69 -77 -20 -160 -46 -185 -59 -27 -14
-78 -59 -128 -113 -90 -98 -150 -137 -234 -148 -63 -9 -131 3 -163 28 l-26 20
52 55 c47 49 50 56 36 70 -14 14 -21 10 -71 -43 -62 -66 -68 -92 -32 -129 49
-48 168 -59 282 -24 65 19 75 27 169 123 55 57 118 112 140 123 22 11 100 37
173 57 230 62 270 83 482 258 144 117 344 253 359 243 14 -8 14 -338 1 -460
-28 -242 -61 -302 -405 -740 -175 -222 -205 -267 -205 -300 0 -27 -106 -235
-120 -235 -4 0 -19 9 -33 20 -48 38 -95 50 -219 56 -68 4 -128 11 -134 16 -6
4 -14 30 -18 57 -29 217 -113 261 -273 143 -38 -27 -90 -59 -116 -70 -67 -30
-181 -108 -222 -153 -65 -72 -95 -165 -63 -197 20 -20 72 -13 143 19 62 28 77
30 168 30 79 -1 109 -5 141 -21 59 -29 176 -119 322 -249 71 -63 144 -120 163
-128 50 -21 189 -13 262 16 109 42 325 189 418 285 34 35 50 44 67 40 30 -8
138 95 257 244 49 62 91 111 93 110 1 -2 26 -39 55 -83 78 -121 300 -331 335
-318 7 3 39 -16 70 -41 31 -25 86 -63 123 -83 36 -20 67 -37 69 -39 2 -1 -6
-32 -17 -69 -35 -112 -29 -174 34 -386 80 -264 89 -328 70 -464 -8 -60 -15
-137 -15 -171 0 -61 1 -64 31 -79 80 -42 449 -45 603 -5 242 62 285 194 81
249 -22 6 -89 17 -150 26 -125 18 -250 51 -266 71 -8 10 -7 49 4 146 9 73 18
210 21 303 5 143 10 184 32 259 47 159 22 288 -86 441 -27 39 -70 112 -95 163
-61 126 -120 216 -199 302 -149 162 -169 220 -122 358 47 138 80 344 92 585 4
70 10 127 14 127 3 0 19 -14 36 -31 16 -17 48 -42 72 -56 41 -24 49 -25 150
-20 132 6 314 45 487 102 l130 43 141 -5 c115 -5 151 -2 191 11 109 36 198
157 151 204 -21 21 -196 8 -220 -16 -25 -25 6 -33 85 -21 42 6 83 9 92 5 14
-5 14 -9 0 -35 -20 -40 -74 -79 -132 -98 -38 -11 -78 -13 -189 -8 l-141 7
-104 -36 c-130 -46 -234 -73 -373 -97 -155 -27 -202 -25 -257 9 -68 44 -85 67
-71 97 14 30 151 175 165 175 6 0 28 -16 48 -36 l38 -37 43 18 c36 15 90 19
323 26 296 8 343 15 387 56 21 20 42 27 90 32 47 4 63 10 63 21 0 11 -15 16
-61 18 -55 3 -65 0 -112 -32 -28 -20 -68 -38 -89 -41 -21 -3 -159 -10 -308
-14 -156 -5 -282 -14 -299 -20 -21 -9 -32 -9 -42 0 -8 6 -64 85 -125 175 -63
93 -132 183 -161 209 l-50 45 15 33 c9 17 19 46 23 62 9 41 22 55 49 55 29 0
35 17 29 77 -4 36 -1 60 15 96 13 31 21 70 21 107 0 32 5 62 10 65 6 3 10 25
10 49 0 143 -119 258 -270 262 -36 1 -102 -2 -146 -6z m243 -58 c48 -25 113
-95 113 -122 0 -18 -4 -17 -65 12 -86 40 -94 36 -88 -45 4 -50 1 -73 -15 -110
-12 -26 -25 -47 -30 -47 -21 0 -95 31 -119 50 -35 27 -57 25 -82 -6 -15 -18
-21 -41 -21 -73 0 -39 -5 -52 -27 -73 -25 -22 -64 -48 -75 -48 -2 0 -22 34
-43 76 -54 105 -59 184 -18 264 44 86 154 153 202 123 10 -7 32 -4 71 9 67 22
141 18 197 -10z m107 -258 c9 -60 7 -74 -14 -128 -15 -40 -22 -79 -21 -113 1
-46 -1 -53 -18 -53 -25 0 -36 -15 -55 -82 -9 -32 -27 -69 -39 -84 -22 -25 -25
-26 -61 -14 -58 19 -122 86 -136 143 -9 35 -17 47 -31 47 -14 0 -19 -7 -19
-25 0 -33 26 -94 50 -120 19 -21 19 -21 -20 -97 -34 -65 -46 -78 -75 -88 -49
-16 -105 -4 -150 32 -38 32 -74 96 -75 133 0 11 26 44 60 77 38 36 62 68 66
87 5 22 15 33 38 41 17 6 48 22 68 35 34 23 38 23 66 9 16 -8 37 -11 46 -8 24
9 15 37 -13 44 -30 7 -46 48 -37 96 8 38 12 40 35 20 23 -19 149 -59 167 -52
24 9 64 106 64 157 0 25 3 49 7 52 3 4 25 -4 47 -17 39 -23 41 -27 50 -92z
m-711 -451 c3 -10 8 -29 11 -43 3 -14 19 -46 35 -72 53 -84 163 -119 261 -84
28 10 40 24 63 72 45 92 50 96 100 73 23 -10 55 -19 70 -19 36 0 75 -21 109
-57 29 -30 188 -269 188 -281 0 -4 -13 -16 -30 -25 -16 -10 -57 -51 -91 -92
-34 -41 -66 -75 -70 -75 -5 0 -9 52 -9 115 0 108 -1 115 -20 115 -19 0 -20 -7
-20 -182 0 -303 -30 -596 -78 -768 -17 -63 -19 -66 -72 -93 -132 -66 -372 -76
-540 -22 -103 33 -250 104 -250 121 0 6 11 32 25 56 14 25 34 72 46 104 43
126 50 182 56 442 5 238 6 252 24 252 23 0 24 18 2 42 -33 36 -79 24 -203 -57
l-115 -75 -23 52 c-12 29 -41 76 -62 105 -22 28 -40 56 -40 60 1 16 136 163
205 223 115 100 185 124 372 129 41 1 53 -2 56 -16z m-260 -1418 c62 -30 148
-64 192 -75 155 -40 336 -36 472 11 31 10 60 19 65 19 4 0 8 -22 8 -48 0 -68
43 -149 134 -250 84 -94 128 -157 176 -251 l32 -64 -48 6 c-65 7 -170 -9 -222
-34 -55 -27 -143 -108 -179 -164 -15 -25 -32 -45 -37 -45 -16 0 -167 134 -212
189 -67 82 -130 190 -118 206 83 117 96 146 74 160 -11 7 -10 8 -121 -140
-152 -202 -226 -291 -283 -339 l-56 -48 -102 50 c-186 91 -327 197 -342 257
-8 33 30 89 233 344 86 108 169 213 184 234 15 20 30 37 33 37 2 0 55 -25 117
-55z m-1233 -475 c11 -6 26 -33 35 -62 19 -67 19 -68 -9 -68 -65 0 -163 -57
-249 -144 -48 -49 -57 -53 -111 -60 -32 -3 -90 -20 -129 -37 -45 -20 -73 -27
-79 -21 -12 12 19 85 55 128 35 41 146 114 232 153 38 18 79 40 90 50 67 62
124 83 165 61z m786 -267 c33 -23 105 -65 159 -94 l98 -53 -54 -50 c-119 -109
-298 -228 -394 -260 -67 -23 -164 -31 -206 -17 -19 6 -50 27 -70 45 -36 35
-36 35 -27 88 5 28 18 73 27 99 37 96 120 188 152 168 28 -17 59 -10 75 19 9
15 34 60 55 100 l40 73 42 -38 c23 -22 70 -58 103 -80z m-740 89 c6 -4 15 -17
18 -30 13 -40 44 -50 171 -57 66 -4 135 -11 153 -17 l32 -10 -51 -56 c-56 -61
-104 -154 -115 -221 -4 -23 -10 -43 -14 -46 -3 -2 -39 25 -80 60 -151 134
-265 209 -332 220 l-40 7 38 39 c49 50 103 87 151 105 44 15 54 16 69 6z
m2311 -96 c120 -133 185 -314 154 -426 -7 -25 -7 -25 -111 -22 -71 3 -131 -2
-184 -13 -43 -9 -81 -14 -83 -11 -3 3 2 25 11 49 25 67 23 73 -52 111 -37 19
-92 54 -121 78 -30 23 -63 50 -73 59 -19 15 -18 17 25 75 84 115 168 156 306
152 l83 -3 45 -49z m119 -499 c3 -3 1 -37 -5 -76 -6 -38 -11 -130 -11 -203 -1
-73 -5 -167 -10 -208 -23 -179 -24 -225 -6 -243 23 -23 15 -32 -50 -56 -59
-22 -129 -28 -139 -11 -4 6 -8 57 -9 113 -3 107 -20 182 -91 407 -20 63 -39
143 -42 176 l-6 62 49 15 c83 28 146 36 232 33 46 -2 86 -6 88 -9z m216 -806
c70 -12 144 -25 165 -30 l38 -8 -30 -13 c-97 -40 -164 -52 -350 -60 -105 -5
-212 -14 -239 -20 -27 -6 -51 -9 -53 -6 -3 2 -1 24 2 49 l7 44 61 0 c50 0 77
6 142 36 45 20 91 34 105 32 14 -2 82 -13 152 -24z m285 -86 c13 -36 -79 -94
-194 -121 -135 -32 -582 -19 -547 16 15 15 134 30 239 30 145 0 257 17 365 54
111 39 129 41 137 21z"/>
<path d="M2465 817 c-64 -21 -121 -65 -159 -120 -47 -70 -59 -117 -54 -196 22
-302 425 -387 568 -120 30 56 34 73 34 139 1 90 -21 146 -83 213 -72 78 -209
115 -306 84z m190 -56 c99 -45 155 -131 155 -238 0 -76 -16 -117 -66 -173 -56
-61 -105 -84 -189 -84 -60 -1 -78 3 -124 29 -126 70 -175 220 -112 344 25 47
99 114 143 128 54 18 148 15 193 -6z"/>
</g>
</svg>
